HIERARCHY
ROOT Hips
{
	OFFSET 0.00000 0.00000 0.00000
	CHANNELS 6 Xposition Yposition Zposition Zrotation Yrotation Xrotation 
	JOINT LHipJoint
	{
		OFFSET 0 0 0
		CHANNELS 3 Zrotation Yrotation Xrotation
		JOINT LeftUpLeg
		{
			OFFSET 1.75344 -1.53157 0.77399
			CHANNELS 3 Zrotation Yrotation Xrotation
			JOINT LeftLeg
			{
				OFFSET 2.25415 -6.19323 0.00000
				CHANNELS 3 Zrotation Yrotation Xrotation
				JOINT LeftFoot
				{
					OFFSET 2.30342 -6.32861 0.00000
					CHANNELS 3 Zrotation Yrotation Xrotation
					JOINT LeftToeBase
					{
						OFFSET 0.10958 -0.30108 1.49206
						CHANNELS 3 Zrotation Yrotation Xrotation
						End Site
						{
							OFFSET 0.00000 -0.00000 0.77783
						}
					}
				}
			}
		}
	}
	JOINT RHipJoint
	{
		OFFSET 0 0 0
		CHANNELS 3 Zrotation Yrotation Xrotation
		JOINT RightUpLeg
		{
			OFFSET -1.81912 -1.53156 0.77399
			CHANNELS 3 Zrotation Yrotation Xrotation
			JOINT RightLeg
			{
				OFFSET -2.22882 -6.12365 0.00000
				CHANNELS 3 Zrotation Yrotation Xrotation
				JOINT RightFoot
				{
					OFFSET -2.21943 -6.09785 0.00000
					CHANNELS 3 Zrotation Yrotation Xrotation
					JOINT RightToeBase
					{
						OFFSET -0.18931 -0.52012 1.59379
						CHANNELS 3 Zrotation Yrotation Xrotation
						End Site
						{
							OFFSET -0.00000 -0.00000 0.84686
						}
					}
				}
			}
		}
	}
	JOINT LowerBack
	{
		OFFSET 0 0 0
		CHANNELS 3 Zrotation Yrotation Xrotation
		JOINT Spine
		{
			OFFSET -0.00200 1.66634 -0.14248
			CHANNELS 3 Zrotation Yrotation Xrotation
			JOINT Spine1
			{
				OFFSET -0.00875 1.64542 0.09514
				CHANNELS 3 Zrotation Yrotation Xrotation
				JOINT Neck
				{
					OFFSET 0 0 0
					CHANNELS 3 Zrotation Yrotation Xrotation
					JOINT Neck1
					{
						OFFSET 0.02257 1.59605 0.00839
						CHANNELS 3 Zrotation Yrotation Xrotation
						JOINT Head
						{
							OFFSET -0.10214 1.57530 -0.23335
							CHANNELS 3 Zrotation Yrotation Xrotation
							End Site
							{
								OFFSET -0.03588 1.60717 -0.08062
							}
						}
					}
				}
				JOINT LeftShoulder
				{
					OFFSET 0 0 0
					CHANNELS 3 Zrotation Yrotation Xrotation
					JOINT LeftArm
					{
						OFFSET 2.54983 1.10186 0.40078
						CHANNELS 3 Zrotation Yrotation Xrotation
						JOINT LeftForeArm
						{
							OFFSET 4.28840 -0.00000 0.00000
							CHANNELS 3 Zrotation Yrotation Xrotation
							JOINT LeftHand
							{
								OFFSET 3.06552 -0.00000 -0.00000
								CHANNELS 3 Zrotation Yrotation Xrotation
								JOINT LeftFingerBase
								{
									OFFSET 0 0 0
									CHANNELS 3 Zrotation Yrotation Xrotation
									JOINT LeftHandIndex1
									{
										OFFSET 0.75304 -0.00000 0.00000
										CHANNELS 3 Zrotation Yrotation Xrotation
										End Site
										{
											OFFSET 0.60712 -0.00000 0.00000
										}
									}
								}
								JOINT LThumb
								{
									OFFSET 0 0 0
									CHANNELS 3 Zrotation Yrotation Xrotation
									End Site
									{
										OFFSET 0.61639 -0.00000 0.61639
									}
								}
							}
						}
					}
				}
				JOINT RightShoulder
				{
					OFFSET 0 0 0
					CHANNELS 3 Zrotation Yrotation Xrotation
					JOINT RightArm
					{
						OFFSET -2.60909 1.35448 0.21802
						CHANNELS 3 Zrotation Yrotation Xrotation
						JOINT RightForeArm
						{
							OFFSET -4.52172 -0.00000 -0.00000
							CHANNELS 3 Zrotation Yrotation Xrotation
							JOINT RightHand
							{
								OFFSET -2.89140 -0.00000 0.00000
								CHANNELS 3 Zrotation Yrotation Xrotation
								JOINT RightFingerBase
								{
									OFFSET 0 0 0
									CHANNELS 3 Zrotation Yrotation Xrotation
									JOINT RightHandIndex1
									{
										OFFSET -0.68054 -0.00000 0.00000
										CHANNELS 3 Zrotation Yrotation Xrotation
										End Site
										{
											OFFSET -0.54867 -0.00000 0.00000
										}
									}
								}
								JOINT RThumb
								{
									OFFSET 0 0 0
									CHANNELS 3 Zrotation Yrotation Xrotation
									End Site
									{
										OFFSET -0.55705 -0.00000 0.55705
									}
								}
							}
						}
					}
				}
			}
		}
	}
}
MOTION
Frames: 10
Frame Time: .0083333
-3.9241 15.1264 -30.3668 -183.6360 32.0061 181.3120 0.0000 0.0000 0.0000 -9.8842 -25.7856 -25.4532 5.0387 13.4273 40.9897 0.8924 12.8967 -26.7474 3.2330 -11.0630 -32.4927 0.0000 0.0000 0.0000 38.7114 17.4757 8.7252 -0.8580 -5.9069 16.5146 -0.0852 -12.4147 -18.7184 -2.4981 -9.8344 28.4421 -2.4002 0.1220 8.1727 1.3472 0.0229 -3.7355 2.7753 0.2039 -8.5561 -18.1973 -15.3338 6.7765 24.1456 -22.5909 6.2610 9.1455 -11.1101 5.7448 0.0000 0.0000 0.0000 -92.3309 35.5824 32.4441 17.4606 -27.4610 -4.2976 -0.0000 -0.0000 0.4821 -23.8045 -13.5722 5.9104 -7.1250 0.0000 -0.0000 -32.7571 15.8149 27.6253 0.0000 0.0000 0.0000 76.6643 -4.1816 50.5495 -32.2937 42.7801 -12.9399 0.0000 0.0000 3.8138 -4.2023 -53.8093 3.3936 7.1250 -0.0000 -0.0000 73.0309 -73.0586 -55.4378
-3.8547 15.1407 -30.5337 -183.3210 33.0022 181.7390 0.0000 0.0000 0.0000 -8.8373 -28.5325 -24.9148 4.3893 12.6612 38.1131 0.8615 14.3467 -27.9398 3.8914 -12.0145 -35.7832 0.0000 0.0000 0.0000 38.8351 16.6472 9.5608 -0.7503 -5.5325 15.4338 -0.1576 -11.3257 -18.1919 -2.4021 -9.6577 27.8752 -1.9310 0.0686 7.3825 1.4298 0.0286 -3.6598 2.5902 0.1760 -8.0105 -17.6174 -15.3308 6.7846 23.5161 -22.4843 6.1259 8.8731 -11.0718 5.5226 -0.0000 0.0000 0.0000 -92.2372 35.4293 31.9724 17.4457 -27.4416 -4.2907 -0.0000 -0.0000 2.2015 -23.2001 -14.7896 6.2439 -7.1250 0.0000 -0.0000 -32.1898 14.7936 27.8037 -0.0000 0.0000 0.0000 76.4374 -3.7402 51.5778 -33.0023 43.3318 -13.4236 0.0000 0.0000 3.8450 -2.2759 -54.6664 1.8570 7.1250 -0.0000 -0.0000 76.5528 -72.5709 -58.2014
-3.7964 15.1378 -30.6592 -183.1870 33.7173 181.8210 0.0000 0.0000 0.0000 -8.0282 -30.8109 -24.5140 3.8142 11.9090 35.4108 0.9260 14.9525 -29.0051 4.0757 -12.2604 -36.6596 0.0000 0.0000 0.0000 39.0283 16.1283 10.6000 -0.6489 -5.1531 14.3457 -0.1677 -10.9695 -17.8735 -2.6480 -10.1022 29.3084 -1.7419 0.0291 7.6988 1.4772 -0.0035 -3.7099 2.5412 0.1557 -8.2467 -17.6324 -15.2244 6.9137 23.5052 -22.3458 6.0596 8.9068 -11.0202 5.4504 -0.0000 -0.0000 0.0000 -91.9917 35.2051 31.2747 17.2748 -27.2186 -4.2123 -0.0000 -0.0000 5.1805 -22.2191 -16.5274 6.6282 -7.1250 0.0000 -0.0000 -31.3407 13.3387 27.9321 -0.0000 -0.0000 0.0000 76.2986 -3.4141 52.3199 -33.7025 43.8631 -13.9065 0.0000 0.0000 4.1243 -0.2399 -55.3430 0.1973 7.1250 -0.0000 -0.0000 79.4234 -71.9877 -60.2852
-3.7316 15.1371 -30.7867 -182.9630 34.4560 182.0340 0.0000 0.0000 0.0000 -7.1203 -33.0949 -24.2661 3.3579 11.2530 33.1379 0.9990 15.5149 -30.0641 4.2350 -12.4667 -37.4036 0.0000 0.0000 0.0000 39.3075 15.7683 11.6976 -0.5539 -4.7673 13.2462 -0.1365 -11.0316 -17.5614 -2.9680 -10.6431 31.0855 -1.5023 0.0422 7.8364 1.5821 0.0517 -3.7781 2.5106 0.1770 -8.4034 -17.8390 -15.0120 7.3957 23.8543 -22.0820 5.6184 9.1412 -10.9431 5.2479 -0.0000 -0.0000 0.0000 -91.6605 34.8766 30.5615 16.9479 -26.7890 -4.0638 -0.0000 -0.0000 9.2537 -20.7385 -18.8307 6.9678 -7.1250 0.0000 -0.0000 -30.1592 11.4041 27.9084 -0.0000 -0.0000 0.0000 76.2404 -3.0946 52.8007 -34.1775 44.2158 -14.2367 0.0000 0.0000 4.6080 1.0758 -55.3489 -0.8850 7.1250 -0.0000 -0.0000 79.9455 -71.5310 -60.2455
-3.6600 15.1352 -30.9212 -182.9930 35.2517 182.1210 0.0000 0.0000 0.0000 -5.9124 -36.7585 -23.8853 2.9611 10.6318 31.0478 1.1529 16.2276 -31.7597 3.8355 -11.9382 -35.5136 0.0000 0.0000 0.0000 39.2955 15.2379 12.5203 -0.4971 -4.5203 12.5452 -0.0850 -11.1416 -17.0377 -2.9083 -10.5451 30.7607 -1.4418 0.1075 7.7926 1.5953 0.1499 -3.8246 2.4758 0.2236 -8.4334 -18.0010 -15.4008 6.2689 23.0800 -22.6931 7.2469 8.6953 -11.1205 5.9853 -0.0000 -0.0000 0.0000 -91.1930 34.4949 29.6949 16.6024 -26.3307 -3.9094 -0.0000 -0.0000 13.8375 -18.7353 -21.2835 7.0185 -7.1250 0.0000 -0.0000 -28.7257 9.3412 27.5097 -0.0000 -0.0000 0.0000 76.3657 -2.7511 53.1735 -34.6690 44.5743 -14.5805 0.0000 0.0000 5.1943 1.6330 -54.8494 -1.3353 7.1250 -0.0000 -0.0000 78.7238 -71.2395 -58.6960
-3.5889 15.1286 -31.0525 -183.0480 36.1196 182.2110 0.0000 0.0000 0.0000 -5.1488 -39.1906 -23.6103 2.6695 10.1397 29.4303 1.0670 17.5399 -32.5397 4.3300 -12.5871 -37.8418 0.0000 0.0000 0.0000 39.2170 14.6991 13.3185 -0.4408 -4.2603 11.8101 -0.0328 -11.2739 -16.5090 -2.8225 -10.4019 30.2884 -1.1953 0.2346 7.3614 1.4540 0.3330 -3.6135 2.1569 0.2859 -7.9600 -17.9402 -15.4339 5.9099 22.9046 -22.7323 7.5278 8.5884 -11.1116 6.1101 -0.0000 -0.0000 0.0000 -90.3395 33.5827 28.7459 16.2732 -25.8897 -3.7645 -0.0000 -0.0000 18.4711 -16.8802 -23.4050 6.8731 -7.1250 0.0000 -0.0000 -27.4597 7.5206 27.0406 -0.0000 -0.0000 0.0000 76.4494 -2.3613 53.3964 -35.6224 45.2514 -15.2537 0.0000 0.0000 5.6311 2.4110 -54.7526 -1.9694 7.1250 -0.0000 -0.0000 78.7858 -70.9498 -58.4017
-3.5149 15.1214 -31.1809 -182.9080 37.0259 182.4880 0.0000 0.0000 0.0000 -3.4834 -43.0186 -23.5251 2.4254 9.7009 28.0135 1.6838 17.1571 -35.7043 3.1397 -10.9178 -32.0032 0.0000 0.0000 0.0000 39.3301 14.4364 14.0098 -0.4021 -4.0709 11.2763 0.0213 -11.4757 -16.0278 -2.7266 -10.2387 29.7531 -0.9646 0.3370 7.2448 1.4557 0.4998 -3.6915 2.0052 0.3576 -7.9813 -17.9275 -15.2926 6.0158 22.8579 -22.5476 7.5800 8.6131 -11.0291 6.0595 -0.0000 -0.0000 0.0000 -89.7197 33.0042 26.9374 16.0451 -25.5818 -3.6654 -0.0000 -0.0000 23.3725 -16.7877 -25.1304 7.3009 -7.1250 0.0000 -0.0000 -27.1922 5.9378 27.6403 -0.0000 -0.0000 0.0000 76.2520 -2.4950 53.7586 -36.6348 45.9448 -15.9770 0.0000 0.0000 5.6572 2.8954 -54.4593 -2.3567 7.1250 -0.0000 -0.0000 78.1852 -70.7176 -57.5324
-3.4383 15.1216 -31.3083 -182.7560 37.8362 182.7870 0.0000 0.0000 0.0000 -2.0800 -46.6278 -23.3114 2.2732 9.4134 27.0972 1.1370 20.5462 -36.0605 4.4027 -12.6778 -38.1742 0.0000 0.0000 0.0000 39.3744 14.0914 14.5511 -0.3767 -3.9417 10.9128 0.0360 -11.3861 -15.6815 -2.3288 -9.5198 27.4354 -0.8314 0.3862 7.1947 1.5406 0.5945 -3.8416 2.0069 0.4045 -8.1176 -18.0709 -15.1673 6.0624 22.7890 -22.4057 7.7559 8.6386 -10.9646 6.0825 0.0000 0.0000 0.0000 -89.3378 32.6129 26.0897 15.9027 -25.3886 -3.6042 -0.0000 -0.0000 23.9644 -15.9795 -24.9315 6.8829 -7.1250 0.0000 -0.0000 -26.7983 6.1631 26.9915 0.0000 0.0000 0.0000 76.5046 -2.2384 53.9719 -36.7363 46.0129 -16.0501 0.0000 0.0000 5.8401 2.8943 -54.1061 -2.3453 7.1250 -0.0000 -0.0000 77.2115 -70.6342 -56.4894
-3.3611 15.1093 -31.4457 -182.8550 38.5884 182.8540 0.0000 0.0000 0.0000 0.0245 -52.8284 -22.9294 2.1459 9.1635 26.3082 3.3368 17.0777 -43.4799 0.8494 -5.8781 -16.4312 0.0000 0.0000 0.0000 39.2915 13.9730 15.4091 -0.3534 -3.8193 10.5689 0.0258 -11.3202 -15.7381 -2.0428 -8.9547 25.6538 -0.8126 0.4435 7.0429 1.5553 0.6785 -3.9066 2.0004 0.4467 -8.1027 -18.2921 -15.0478 6.1227 22.9000 -22.2822 7.8350 8.7334 -10.9107 6.1106 -0.0000 -0.0000 0.0000 -88.8697 32.0451 25.4782 15.8018 -25.2512 -3.5610 -0.0000 -0.0000 23.1980 -15.8224 -24.1685 6.6183 -7.1250 0.0000 -0.0000 -26.8090 6.8741 26.5909 -0.0000 -0.0000 0.0000 76.5434 -2.0713 54.2548 -36.8221 46.0702 -16.1118 0.0000 0.0000 5.8993 2.7814 -54.3060 -2.2595 7.1250 -0.0000 -0.0000 77.7076 -70.7212 -57.0749
-3.2826 15.0994 -31.5864 -183.2040 39.3162 182.6500 0.0000 0.0000 0.0000 0.1431 -55.0793 -22.5678 2.0639 8.9979 25.7888 3.6325 17.4763 -44.9812 0.7038 -5.3621 -14.9442 0.0000 0.0000 0.0000 38.7201 13.1705 16.0488 -0.3325 -3.7061 10.2513 -0.0570 -10.3785 -15.6409 -2.1041 -9.0796 26.0447 -0.8370 0.4996 6.9062 1.4413 0.7423 -3.9303 1.8852 0.4752 -8.0494 -18.3091 -14.9933 6.2216 22.8143 -22.2167 7.8655 8.7270 -10.8891 6.0791 0.0000 -0.0000 0.0000 -88.1930 31.4256 24.8252 15.7107 -25.1268 -3.5222 -0.0000 -0.0000 22.3891 -15.7709 -23.5855 6.4472 -7.1250 0.0000 -0.0000 -26.8546 7.4136 26.3303 0.0000 -0.0000 0.0000 76.6084 -2.0713 54.5115 -36.9229 46.1374 -16.1845 0.0000 0.0000 5.9227 2.5003 -54.3061 -2.0310 7.1250 -0.0000 -0.0000 77.5779 -70.8183 -57.0693
